<svg xmlns="http://www.w3.org/2000/svg" width="50" height="74.443" viewBox="0 0 50 74.443">
  <g id="Group_28" data-name="Group 28" transform="translate(0.854 0.375)">
    <g id="Group_27" data-name="Group 27" transform="translate(3.042)">
      <g id="Group_23" data-name="Group 23" transform="translate(0 17.548)">
        <g id="Group_22" data-name="Group 22">
          <path id="Path_13" data-name="Path 13" d="M130.78,292.381H89.729a.429.429,0,0,1-.439-.418V264.79a.429.429,0,0,1,.439-.421H130.78a.429.429,0,0,1,.439.421v27.173A.429.429,0,0,1,130.78,292.381Z" transform="translate(-89.29 -264.369)" fill="none" stroke="#9a9ae8" stroke-linecap="round" stroke-linejoin="round" stroke-width="0.75"/>
        </g>
      </g>
      <g id="Group_25" data-name="Group 25" transform="translate(16.219 26.998)">
        <g id="Group_24" data-name="Group 24">
          <path id="Path_14" data-name="Path 14" d="M100.176,277.207a4.559,4.559,0,1,1,4.747-4.558A4.662,4.662,0,0,1,100.176,277.207Z" transform="translate(-95.427 -268.097)" fill="none" stroke="#ff9265" stroke-linecap="round" stroke-linejoin="round" stroke-width="0.75"/>
        </g>
      </g>
      <g id="Group_26" data-name="Group 26" transform="translate(5.545)">
        <path id="Path_15" data-name="Path 15" d="M91.388,274.994V271.04c0-7.5,6.356-13.594,14.168-13.594h2.5c7.812,0,14.168,6.1,14.168,13.594v3.954" transform="translate(-91.388 -257.446)" fill="none" stroke="#9a9ae8" stroke-linecap="round" stroke-linejoin="round" stroke-width="0.75"/>
      </g>
    </g>
    <text id="LOGOUT" transform="translate(24.146 71.068)" fill="#9a9ae8" font-size="12" font-family="SegoeUI, Segoe UI" letter-spacing="0.04em"><tspan x="-24.248" y="0">LOGOUT</tspan></text>
  </g>
</svg>
